<svg xmlns="http://www.w3.org/2000/svg" xmlns:xlink="http://www.w3.org/1999/xlink" width="759.503" height="398.673" viewBox="0 0 759.503 398.673">
  <defs>
    <linearGradient id="linear-gradient" x1="0.189" y1="-0.012" x2="0.714" y2="0.515" gradientUnits="objectBoundingBox">
      <stop offset="0.17" stop-color="#d6ac5f"/>
      <stop offset="0.27" stop-color="#c69c53"/>
      <stop offset="0.48" stop-color="#aa803d"/>
      <stop offset="0.61" stop-color="#a07635"/>
      <stop offset="0.71" stop-color="#a97f3c"/>
      <stop offset="0.88" stop-color="#c1974e"/>
      <stop offset="1" stop-color="#d6ac5f"/>
    </linearGradient>
    <linearGradient id="linear-gradient-2" x1="0.067" y1="0.016" x2="1.057" y2="1.125" gradientUnits="objectBoundingBox">
      <stop offset="0.32" stop-color="#d6ac5f"/>
      <stop offset="0.45" stop-color="#cca257"/>
      <stop offset="0.65" stop-color="#b18742"/>
      <stop offset="0.77" stop-color="#a07635"/>
      <stop offset="0.83" stop-color="#a97f3c"/>
      <stop offset="0.93" stop-color="#c1974e"/>
      <stop offset="1" stop-color="#d6ac5f"/>
    </linearGradient>
    <linearGradient id="linear-gradient-3" x1="0.239" y1="0.459" x2="1.268" y2="0.81" gradientUnits="objectBoundingBox">
      <stop offset="0" stop-color="#9e7433"/>
      <stop offset="0.16" stop-color="#dab062"/>
      <stop offset="0.34" stop-color="#9e7433"/>
      <stop offset="0.57" stop-color="#d5bc6c"/>
      <stop offset="0.81" stop-color="#d5bc6c"/>
      <stop offset="1" stop-color="#9e7433"/>
    </linearGradient>
    <radialGradient id="radial-gradient" cx="0.58" cy="0.493" r="0.534" gradientTransform="translate(0.075 0.005) scale(0.897 0.982)" gradientUnits="objectBoundingBox">
      <stop offset="0" stop-color="#fff"/>
      <stop offset="1" stop-color="#fff" stop-opacity="0"/>
    </radialGradient>
    <radialGradient id="radial-gradient-2" cx="0.691" cy="0.334" r="0.503" gradientTransform="translate(0.072) scale(0.857 1)" xlink:href="#radial-gradient"/>
    <radialGradient id="radial-gradient-3" cx="0.539" cy="0.123" r="0.503" gradientTransform="translate(0.072) scale(0.857 1)" xlink:href="#radial-gradient"/>
    <radialGradient id="radial-gradient-4" cx="0.723" cy="0.093" r="0.503" gradientTransform="translate(0.072) scale(0.857 1)" xlink:href="#radial-gradient"/>
    <radialGradient id="radial-gradient-5" cx="0.698" cy="0.008" r="0.503" gradientTransform="translate(0.071) scale(0.857 1)" xlink:href="#radial-gradient"/>
    <radialGradient id="radial-gradient-6" cx="0.477" cy="-0.183" r="0.503" gradientTransform="translate(0.071) scale(0.857 1)" xlink:href="#radial-gradient"/>
    <radialGradient id="radial-gradient-7" cx="0.833" cy="-0.252" r="0.503" gradientTransform="translate(0.072) scale(0.857 1)" xlink:href="#radial-gradient"/>
    <radialGradient id="radial-gradient-8" cx="0.544" cy="-0.283" r="0.503" gradientTransform="translate(0.071) scale(0.857 1)" xlink:href="#radial-gradient"/>
    <radialGradient id="radial-gradient-9" cx="0.887" cy="0.433" r="0.49" gradientTransform="translate(0.051) scale(0.897 1)" xlink:href="#radial-gradient"/>
    <radialGradient id="radial-gradient-10" cx="1.106" cy="0.117" r="0.49" gradientTransform="translate(0.051) scale(0.897 1)" xlink:href="#radial-gradient"/>
    <radialGradient id="radial-gradient-11" cx="0.66" cy="-0.045" r="0.49" gradientTransform="translate(0.051) scale(0.897 1)" xlink:href="#radial-gradient"/>
    <radialGradient id="radial-gradient-12" cx="0.764" cy="-0.196" r="0.49" gradientTransform="translate(0.051) scale(0.897 1)" xlink:href="#radial-gradient"/>
    <radialGradient id="radial-gradient-13" cx="1.2" cy="-0.188" r="0.49" gradientTransform="translate(0.051) scale(0.897 1)" xlink:href="#radial-gradient"/>
    <radialGradient id="radial-gradient-14" cx="1.126" cy="-0.499" r="0.49" gradientTransform="translate(0.051) scale(0.898 1)" xlink:href="#radial-gradient"/>
    <radialGradient id="radial-gradient-15" cx="0.783" cy="-0.488" r="0.49" gradientTransform="translate(0.051) scale(0.897 1)" xlink:href="#radial-gradient"/>
    <radialGradient id="radial-gradient-16" cx="0.697" cy="-0.627" r="0.49" gradientTransform="translate(0.051) scale(0.897 1)" xlink:href="#radial-gradient"/>
    <radialGradient id="radial-gradient-17" cx="0.565" cy="-0.549" r="0.49" gradientTransform="translate(0.051) scale(0.897 1)" xlink:href="#radial-gradient"/>
    <radialGradient id="radial-gradient-18" cx="1.182" cy="-0.749" r="0.49" gradientTransform="translate(0.051) scale(0.898 1)" xlink:href="#radial-gradient"/>
    <radialGradient id="radial-gradient-19" cx="0.839" cy="-0.9" r="0.49" gradientTransform="translate(0.051) scale(0.897 1)" xlink:href="#radial-gradient"/>
    <radialGradient id="radial-gradient-20" cx="0.636" cy="-0.842" r="0.49" gradientTransform="translate(0.051) scale(0.897 1)" xlink:href="#radial-gradient"/>
    <radialGradient id="radial-gradient-21" cx="1.05" cy="-0.724" r="0.49" gradientTransform="translate(0.051) scale(0.897 1)" xlink:href="#radial-gradient"/>
    <radialGradient id="radial-gradient-22" cx="1.035" cy="-1.073" r="0.49" gradientTransform="translate(0.051) scale(0.897 1)" xlink:href="#radial-gradient"/>
    <radialGradient id="radial-gradient-23" cx="0.633" cy="-1.036" r="0.49" gradientTransform="translate(0.051) scale(0.897 1)" xlink:href="#radial-gradient"/>
    <radialGradient id="radial-gradient-24" cx="0.897" cy="-1.192" r="0.49" gradientTransform="translate(0.051) scale(0.897 1)" xlink:href="#radial-gradient"/>
    <radialGradient id="radial-gradient-25" cx="0.968" cy="-0.025" r="0.49" gradientTransform="translate(0.051) scale(0.897 1)" xlink:href="#radial-gradient"/>
    <linearGradient id="linear-gradient-4" x1="-0.177" y1="-0.181" x2="1.599" y2="1.6" xlink:href="#linear-gradient-3"/>
    <linearGradient id="linear-gradient-5" x1="-0.179" y1="-0.179" x2="1.599" y2="1.602" xlink:href="#linear-gradient-3"/>
    <linearGradient id="linear-gradient-6" x1="-0.177" y1="-0.179" x2="1.599" y2="1.602" xlink:href="#linear-gradient-3"/>
    <linearGradient id="linear-gradient-7" x1="-0.179" y1="-0.181" x2="1.599" y2="1.602" xlink:href="#linear-gradient-3"/>
    <linearGradient id="linear-gradient-8" x1="-0.177" y1="-0.179" x2="1.601" y2="1.602" xlink:href="#linear-gradient-3"/>
    <linearGradient id="linear-gradient-11" x1="-0.179" y1="-0.181" x2="1.599" y2="1.6" xlink:href="#linear-gradient-3"/>
    <linearGradient id="linear-gradient-22" x1="-0.177" y1="-0.179" x2="1.595" y2="1.596" xlink:href="#linear-gradient-3"/>
    <linearGradient id="linear-gradient-24" x1="-0.177" y1="-0.173" x2="1.595" y2="1.603" xlink:href="#linear-gradient-3"/>
    <linearGradient id="linear-gradient-27" x1="-0.177" y1="-0.173" x2="1.595" y2="1.596" xlink:href="#linear-gradient-3"/>
    <linearGradient id="linear-gradient-36" x1="-0.171" y1="-0.179" x2="1.595" y2="1.596" xlink:href="#linear-gradient-3"/>
    <linearGradient id="linear-gradient-45" x1="-0.171" y1="-0.179" x2="1.601" y2="1.596" xlink:href="#linear-gradient-3"/>
    <linearGradient id="linear-gradient-49" x1="-0.171" y1="-0.173" x2="1.595" y2="1.596" xlink:href="#linear-gradient-3"/>
    <linearGradient id="linear-gradient-50" x1="-0.171" y1="-0.179" x2="1.601" y2="1.596" xlink:href="#linear-gradient-3"/>
    <linearGradient id="linear-gradient-51" x1="-0.171" y1="-0.173" x2="1.595" y2="1.603" xlink:href="#linear-gradient-3"/>
    <linearGradient id="linear-gradient-58" x1="-0.171" y1="-0.179" x2="1.595" y2="1.596" xlink:href="#linear-gradient-3"/>
    <linearGradient id="linear-gradient-59" x1="-0.177" y1="-0.179" x2="1.595" y2="1.596" xlink:href="#linear-gradient-3"/>
    <linearGradient id="linear-gradient-60" x1="-0.001" y1="0.5" x2="0.999" y2="0.5" xlink:href="#linear-gradient-3"/>
  </defs>
  <g id="Group_18" data-name="Group 18" transform="translate(-1060.248 -352.708)">
    <g id="Group_17" data-name="Group 17">
      <g id="Group_16" data-name="Group 16">
        <g id="Group_15" data-name="Group 15">
          <g id="Group_14" data-name="Group 14">
            <g id="Group_13" data-name="Group 13">
              <path id="Path_158" data-name="Path 158" d="M266.99,300.11H160.19V490.37H106.34V300.11H0V258.83H266.99Z" transform="translate(1272.962 146)" fill="url(#linear-gradient)"/>
              <path id="Path_159" data-name="Path 159" d="M545.2,435.62q0,32.31-12.34,43.53t-45.1,11.22H349.55q-32.76,0-45.1-11.22t-12.34-43.53V313.57q0-32.31,12.34-43.53t45.1-11.22H487.76q41.28,0,51.15,19.3,6.285,11.22,6.28,57.44l-53.85,8.53V300.12H345.95V446.85H491.34V397.04l53.85,11.22v27.37Z" transform="translate(1272.962 146)" fill="url(#linear-gradient-2)"/>
              <path id="Path_160" data-name="Path 160" d="M83.2,512.11v40.31H77V512.11Z" transform="translate(1272.962 146)" fill="#fff"/>
              <path id="Path_161" data-name="Path 161" d="M99.3,512.11v34.9h23.21v5.41H93.16V512.11Z" transform="translate(1272.962 146)" fill="#fff"/>
              <path id="Path_162" data-name="Path 162" d="M136.52,512.11v34.9h23.21v5.41H130.38V512.11Z" transform="translate(1272.962 146)" fill="#fff"/>
              <path id="Path_163" data-name="Path 163" d="M172.01,512.11V534q0,6.69,2.94,10.3t8.55,3.6q11.49,0,11.49-13.78v-22h6.2v22.06q0,8.88-4.54,13.98t-13.15,5.11c-5.74,0-10.05-1.67-13.1-5.01s-4.58-7.97-4.58-13.88V512.11h6.2Z" transform="translate(1272.962 146)" fill="#fff"/>
              <path id="Path_164" data-name="Path 164" d="M217.9,512.11l13.6,21.01,13.66-21.01h6.55v40.31h-5.93V521.48h-.56l-12.34,18.95h-3.06l-12.28-18.95h-.53v30.94h-5.85V512.11h6.73Z" transform="translate(1272.962 146)" fill="#fff"/>
              <path id="Path_165" data-name="Path 165" d="M267.9,512.11v40.31h-6.2V512.11Z" transform="translate(1272.962 146)" fill="#fff"/>
              <path id="Path_166" data-name="Path 166" d="M313.11,512.11v40.31h-6.02l-23.33-30.55v30.55h-5.91V512.11h5.46l23.94,31.35V512.11h5.85Z" transform="translate(1272.962 146)" fill="#fff"/>
              <path id="Path_167" data-name="Path 167" d="M344.57,512.05l16.92,40.37h-6.76l-3.61-9.14H330.73l-3.56,9.14h-6.55l16.77-40.37h7.17Zm-11.78,25.91h16.3l-7.76-19.71h-.73l-7.81,19.71Z" transform="translate(1272.962 146)" fill="#fff"/>
              <path id="Path_168" data-name="Path 168" d="M397.69,512.11v5.41H382.88v34.9H376.8v-34.9H361.99v-5.41h35.69Z" transform="translate(1272.962 146)" fill="#fff"/>
              <path id="Path_169" data-name="Path 169" d="M411.76,512.11v40.31h-6.2V512.11Z" transform="translate(1272.962 146)" fill="#fff"/>
              <path id="Path_170" data-name="Path 170" d="M441.08,511.26a22.727,22.727,0,0,1,8.65,1.62,19.131,19.131,0,0,1,10.98,11.08,22.277,22.277,0,0,1,1.54,8.31,21.48,21.48,0,0,1-2.63,10.53,19.766,19.766,0,0,1-7.51,7.62,21.476,21.476,0,0,1-11.05,2.85,22.248,22.248,0,0,1-8.62-1.65,19.73,19.73,0,0,1-6.71-4.47,20.228,20.228,0,0,1-4.27-6.68,21.908,21.908,0,0,1-1.54-8.21,21.478,21.478,0,0,1,2.66-10.58,19.686,19.686,0,0,1,7.54-7.61,21.478,21.478,0,0,1,10.96-2.82Zm0,5.35a15.264,15.264,0,0,0-8.06,2.09,13.468,13.468,0,0,0-5.21,5.61,18.736,18.736,0,0,0,.03,15.92,13.584,13.584,0,0,0,5.24,5.6,15.266,15.266,0,0,0,8.01,2.07,15.724,15.724,0,0,0,8.08-2.04,13.265,13.265,0,0,0,5.24-5.57,18.949,18.949,0,0,0-.03-16.1,13.392,13.392,0,0,0-5.26-5.55,15.593,15.593,0,0,0-8.04-2.03Z" transform="translate(1272.962 146)" fill="#fff"/>
              <path id="Path_171" data-name="Path 171" d="M505.74,512.11v40.31h-6.02l-23.33-30.55v30.55h-5.91V512.11h5.46l23.94,31.35V512.11h5.85Z" transform="translate(1272.962 146)" fill="#fff"/>
              <path id="Path_172" data-name="Path 172" d="M542.32,520.4a19.747,19.747,0,0,0-11.9-3.79c-3.13,0-5.46.52-6.96,1.57a5.041,5.041,0,0,0-2.26,4.39,4.945,4.945,0,0,0,1.65,4.04,10.775,10.775,0,0,0,5.35,1.87l6.02.85q12.57,1.845,12.57,11.61a10.715,10.715,0,0,1-4.42,8.94q-4.425,3.39-12.62,3.39a31.589,31.589,0,0,1-8.68-1.1,22.281,22.281,0,0,1-7.21-3.6l2.91-4.88a23.1,23.1,0,0,0,13.48,4.2c3.41,0,6-.61,7.79-1.82a5.7,5.7,0,0,0,2.67-4.96,5.239,5.239,0,0,0-1.81-4.16,10.888,10.888,0,0,0-5.71-2.1l-6.32-.91q-11.67-1.56-11.66-11.13a9.931,9.931,0,0,1,4.13-8.53q4.125-3.015,11.03-3.01a28.73,28.73,0,0,1,8.28,1.19,19.505,19.505,0,0,1,6.82,3.51l-3.14,4.44Z" transform="translate(1272.962 146)" fill="#fff"/>
              <g id="Group_12" data-name="Group 12" transform="translate(1060.248 404.395)">
                <path id="Path_87" data-name="Path 87" d="M335.241,40.007a2.24,2.24,0,0,1,1.639-2.737,2.293,2.293,0,0,1,2.779,1.612c.014.069,5.238,19.494.667,34.319a29.333,29.333,0,0,1,11.532,9.712,35.692,35.692,0,0,1,6.127,15.2,36.58,36.58,0,0,1-1.32,17.035A35.816,35.816,0,0,1,348.2,129.1a56.342,56.342,0,0,1,17.035,10.143c3.682,3.4,6.141,7.156,6.919,11.06v.1c.792,4.043-.222,8.128-3.5,12.046-2.626,3.14-6.794,6.169-12.783,8.962,12.755,5.155,21.439,10.74,26.65,16.451,5.155,5.655,7.031,11.5,6.155,17.285-.861,5.655-4.391,11.116-10.073,16.145-8.754,7.767-22.856,14.673-40.28,19.827,2.834,1.125,5.738,2.334,8.67,3.613,8.615,3.751,16.27,6.961,23.079,9.643q3.126,1.23,6.03,2.334c4.2-1.584,7.7-2.834,10.282-3.613,17.688-5.294,29.929-3.821,36.167-.333,3.6,2.015,5.447,4.78,5.488,7.572.042,2.876-1.778,5.572-5.53,7.364-6.044,2.876-17.9,3.446-35.723-2.4q-4.939-1.626-10.685-3.765c-4.168,1.6-9,3.5-14.284,5.572-15.562,6.127-35,13.769-53.507,19.813,3.126,1.389,6.405,2.862,9.809,4.377,13.936,6.266,29.915,13.422,45.629,19.327,11.81-4.516,21.925-8.1,28.97-9.8,22.565-5.447,36.792-3.988,43.8.083,4.21,2.445,6.086,5.85,5.85,9.448-.236,3.432-2.445,6.906-6.447,9.726-7.934,5.613-23.5,9-44.643,3.932a242.488,242.488,0,0,1-27.483-8.6c-6.85,2.64-14.27,5.558-21.981,8.615-16.6,6.558-34.542,13.644-51.159,19.438,6.419,2.848,12.394,5.78,17.465,8.267,3.39,1.653,6.364,3.112,8.8,4.224,17.882,8.114,38.182,12.324,57.023,11.657,17.354-.625,33.416-5.391,45.1-15.089a2.3,2.3,0,0,1,3.21.278,2.236,2.236,0,0,1-.278,3.168c-12.519,10.379-29.553,15.478-47.866,16.145-19.549.709-40.586-3.654-59.093-12.06-2.445-1.112-5.46-2.584-8.906-4.266-6.2-3.029-13.769-6.739-21.773-10.143-7.7,2.57-15.02,4.794-21.689,6.489-17.16,4.349-28.22,3.126-33.763-.153-3.585-2.126-5.127-5.1-4.807-8.226.306-2.932,2.348-5.85,5.975-8.073,6.892-4.238,20.147-6.266,38.446-.695,5.363,1.64,10.782,3.668,16.02,5.85,17.757-6.016,37.473-13.8,55.605-20.967,6-2.376,11.838-4.682,17.368-6.836-14.311-5.572-28.609-11.991-41.239-17.66-5.113-2.293-9.948-4.474-14.409-6.405-5.377,1.653-10.629,3.14-15.631,4.363-19.466,4.78-32.068,3.224-38.279-.4-3.7-2.154-5.4-5.085-5.266-8.087.153-2.946,2.112-5.78,5.78-7.836,6.5-3.64,19.035-5,36.681.528,4.5,1.417,10.282,3.751,16.965,6.642,19.73-6.169,41.183-14.6,58.037-21.245,3.432-1.348,6.683-2.626,9.684-3.793l-1.445-.57c-6.947-2.751-14.659-5.961-23.218-9.7-4.863-2.126-9.6-4.029-14.158-5.724q-7.336,1.876-15.27,3.307c-20.105,3.654-35.57.208-43.142-4.377-3.585-2.168-5.641-4.752-5.891-7.225-.292-2.876,1.528-5.308,5.725-6.642,6.405-2.029,19.813-1.584,41.781,4.669,5.127,1.459,10.532,3.2,16.159,5.238l.9.333c19.424-5.085,35.042-12.3,44.268-20.466,4.9-4.335,7.92-8.906,8.615-13.478.681-4.446-.861-9.045-5.03-13.63-5.349-5.877-14.853-11.644-29.276-16.965a134.947,134.947,0,0,1-17.979,5.044c-23.718,5.1-38.932,3.432-46.227-.347-4.085-2.112-6.016-4.988-5.905-7.989.111-2.946,2.209-5.752,6.225-7.809,7.447-3.807,22.426-5.377,43.948.222q11.109,2.9,19.911,6.086c7.559-2.932,12.5-6.169,15.3-9.5,2.334-2.779,3.071-5.613,2.543-8.351v-.069c-.6-2.932-2.57-5.877-5.572-8.642-4.266-3.932-10.449-7.42-17.632-10.06a48.281,48.281,0,0,1-15.909,8.156c-13.005,4.029-21.509,3.557-25.913,1.181a7.311,7.311,0,0,1-4.252-5.947,8.762,8.762,0,0,1,2.89-6.669h0c3.835-3.863,11.755-6.919,22.912-5.877a88.251,88.251,0,0,1,19.272,4.043,31.568,31.568,0,0,0,8.851-13.6,32.054,32.054,0,0,0,1.153-14.978,31.214,31.214,0,0,0-5.363-13.3,24.782,24.782,0,0,0-9.462-8.073,22.655,22.655,0,0,1-3.918,5.752c-5.308,5.572-10.212,7.031-13.867,6.308a8.144,8.144,0,0,1-5.933-4.7,8.766,8.766,0,0,1,.181-7.475c1.667-3.39,5.641-6.28,12.561-6.544a28.151,28.151,0,0,1,8.406.917c4.085-13.339-.834-31.61-.848-31.665h0ZM331.42,80.092a17.959,17.959,0,0,0,2.96-4.21,23.293,23.293,0,0,0-6.517-.653c-4.919.195-7.614,1.959-8.615,4.015a4.35,4.35,0,0,0-.111,3.71,3.652,3.652,0,0,0,2.654,2.112c2.279.459,5.6-.736,9.643-4.988h0Zm-4.21,56.245a45.547,45.547,0,0,0,11.977-5.6,84.638,84.638,0,0,0-15.409-2.932c-9.587-.9-16.173,1.5-19.216,4.543h0a4.421,4.421,0,0,0-1.584,3.224,3.041,3.041,0,0,0,1.862,2.306c3.474,1.862,10.7,2.084,22.37-1.542Zm3.7,38.2c4.432-.945,8.42-1.973,11.977-3.057-4.335-1.4-9.031-2.779-14.131-4.1-20.272-5.28-34.027-3.988-40.669-.584-2.459,1.25-3.724,2.668-3.779,3.974-.042,1.237,1.1,2.612,3.474,3.849,6.516,3.39,20.605,4.766,43.128-.069h0Zm-15.993,67.485q4.231-.771,8.281-1.667-5.356-1.792-10.254-3.2c-20.981-5.961-33.416-6.5-39.127-4.7-1.82.584-2.64,1.264-2.584,1.931.111,1.056,1.4,2.432,3.724,3.835,6.85,4.141,21.092,7.211,39.933,3.793h0Zm67.708,17.076q2.939,1.042,5.627,1.917c16.507,5.433,27.108,5.085,32.277,2.626,1.987-.945,2.973-2.126,2.946-3.251-.014-1.209-1.084-2.557-3.182-3.724-5.377-3-16.3-4.141-32.6.723-1.4.417-3.112,1-5.085,1.709h0Zm-97.5,29.859c3.307-.82,6.739-1.751,10.254-2.765-4.488-1.876-8.42-3.39-11.616-4.391-16.256-5.1-27.455-4.043-33.055-.9-2.223,1.25-3.4,2.737-3.474,4.141-.069,1.348.931,2.779,3.029,4,5.377,3.14,16.729,4.377,34.861-.083Zm85.117,24.01a220.905,220.905,0,0,0,22.106,6.683c19.688,4.71,33.847,1.778,40.905-3.21,2.848-2.015,4.4-4.279,4.544-6.364.125-1.9-1.028-3.793-3.613-5.294-6.141-3.571-19.147-4.724-40.391.4a226.477,226.477,0,0,0-23.565,7.795h0ZM261.5,347.755c5.1-1.292,10.6-2.9,16.368-4.752-3.557-1.376-7.156-2.654-10.727-3.738-16.84-5.127-28.706-3.474-34.694.208-2.376,1.459-3.682,3.154-3.849,4.71-.139,1.376.695,2.779,2.612,3.9C235.882,350.853,245.691,351.756,261.5,347.755Z" transform="translate(-221.64 -37.2)" fill-rule="evenodd" fill="url(#linear-gradient-3)"/>
                <g id="Group_10" data-name="Group 10" transform="translate(24.065 9.616)">
                  <path id="Path_88" data-name="Path 88" d="M308.77,64.18l6.808,5.683,6.53-5.4-6.016,5.85,6.336,6.127-6.808-5.683-6.544,5.4,6.03-5.836Z" transform="translate(-212.704 -36.308)" fill-rule="evenodd" fill="url(#radial-gradient)" style="mix-blend-mode: lighten;isolation: isolate"/>
                  <g id="Group_9" data-name="Group 9" transform="translate(0 46.296)">
                    <path id="Path_89" data-name="Path 89" d="M287.119,84.429l6.253,5.238.57-12.227.528,12.213,5.989-4.946-5.53,5.363,14.325.486-14.339.459,5.85,5.669-6.252-5.238-.57,12.227-.528-12.213-5.988,4.946,5.53-5.363-14.325-.486,14.339-.458Z" transform="translate(-224.442 -77.44)" fill-rule="evenodd" fill="url(#radial-gradient-2)" style="mix-blend-mode: lighten;isolation: isolate"/>
                    <path id="Path_90" data-name="Path 90" d="M328.556,144.465l6.266,5.238.57-12.213.528,12.213,5.989-4.946-5.53,5.363,14.325.472-14.353.472,5.863,5.655-6.266-5.224-.556,12.227-.528-12.227-5.989,4.96,5.516-5.363-14.311-.5,14.339-.445Z" transform="translate(-208.299 -54.054)" fill-rule="evenodd" fill="url(#radial-gradient-3)" style="mix-blend-mode: lighten;isolation: isolate"/>
                    <path id="Path_91" data-name="Path 91" d="M278.349,153l6.253,5.238.57-12.227.528,12.213,5.989-4.946-5.53,5.363,14.325.486-14.339.459,5.85,5.669-6.266-5.238-.556,12.227-.528-12.213-5.989,4.946,5.516-5.363-14.311-.486,14.339-.459Z" transform="translate(-227.857 -50.736)" fill-rule="evenodd" fill="url(#radial-gradient-4)" style="mix-blend-mode: lighten;isolation: isolate"/>
                    <path id="Path_92" data-name="Path 92" d="M285.016,177.289l6.266,5.238.556-12.227.528,12.213,5.988-4.946-5.53,5.363,14.325.486-14.339.459,5.863,5.669-6.266-5.238-.57,12.227-.528-12.213-5.989,4.946,5.53-5.363-14.311-.486,14.339-.459Z" transform="translate(-225.256 -41.276)" fill-rule="evenodd" fill="url(#radial-gradient-5)" style="mix-blend-mode: lighten;isolation: isolate"/>
                    <path id="Path_93" data-name="Path 93" d="M345.706,231.8l6.266,5.238.57-12.227.528,12.213,5.988-4.946-5.53,5.377,14.311.486-14.325.445,5.85,5.669-6.266-5.224-.556,12.213L352,238.829l-5.975,4.946,5.516-5.363-14.311-.472,14.339-.472Z" transform="translate(-201.62 -20.048)" fill-rule="evenodd" fill="url(#radial-gradient-6)" style="mix-blend-mode: lighten;isolation: isolate"/>
                    <path id="Path_94" data-name="Path 94" d="M248.119,251.409l6.266,5.238.556-12.227.528,12.213,5.988-4.946-5.53,5.363,14.325.486-14.339.459,5.863,5.669-6.266-5.238-.57,12.227-.528-12.213-5.989,4.946,5.53-5.363-14.325-.486,14.339-.459Z" transform="translate(-239.63 -12.411)" fill-rule="evenodd" fill="url(#radial-gradient-7)" style="mix-blend-mode: lighten;isolation: isolate"/>
                    <path id="Path_95" data-name="Path 95" d="M327.256,260.005l6.266,5.238.57-12.213.528,12.213,5.988-4.946-5.53,5.363,14.311.472-14.339.472,5.863,5.669-6.266-5.238-.556,12.227-.542-12.227L327.575,272l5.516-5.363-14.311-.5,14.339-.445Z" transform="translate(-208.806 -9.058)" fill-rule="evenodd" fill="url(#radial-gradient-8)" style="mix-blend-mode: lighten;isolation: isolate"/>
                  </g>
                  <path id="Path_96" data-name="Path 96" d="M289.67,44.12l6.794,5.683,6.544-5.4-6.016,5.85,6.336,6.127-6.808-5.683-6.544,5.4,6.03-5.85Z" transform="translate(-220.142 -44.12)" fill-rule="evenodd" fill="url(#radial-gradient-9)" style="mix-blend-mode: lighten;isolation: isolate"/>
                  <path id="Path_97" data-name="Path 97" d="M262.96,86.2l6.808,5.683,6.544-5.4-6.03,5.85,6.336,6.127-6.794-5.683-6.544,5.4,6.016-5.85Z" transform="translate(-230.544 -27.732)" fill-rule="evenodd" fill="url(#radial-gradient-10)" style="mix-blend-mode: lighten;isolation: isolate"/>
                  <path id="Path_98" data-name="Path 98" d="M317.34,107.72l6.808,5.683,6.544-5.4-6.03,5.836L331,119.975l-6.794-5.683-6.544,5.4,6.016-5.85Z" transform="translate(-209.366 -19.351)" fill-rule="evenodd" fill="url(#radial-gradient-11)" style="mix-blend-mode: lighten;isolation: isolate"/>
                  <path id="Path_99" data-name="Path 99" d="M304.72,127.8l6.794,5.683,6.544-5.4-6.016,5.85,6.336,6.127-6.808-5.683-6.544,5.4,6.03-5.85Z" transform="translate(-214.281 -11.531)" fill-rule="evenodd" fill="url(#radial-gradient-12)" style="mix-blend-mode: lighten;isolation: isolate"/>
                  <path id="Path_100" data-name="Path 100" d="M251.31,126.84l6.794,5.7,6.544-5.419-6.016,5.85,6.336,6.127-6.808-5.683-6.544,5.4,6.03-5.836Z" transform="translate(-235.081 -11.905)" fill-rule="evenodd" fill="url(#radial-gradient-13)" style="mix-blend-mode: lighten;isolation: isolate"/>
                  <path id="Path_101" data-name="Path 101" d="M260.54,167.97l6.794,5.683,6.544-5.4-6.03,5.836,6.336,6.141-6.794-5.683-6.544,5.4,6.016-5.85Z" transform="translate(-231.487 4.113)" fill-rule="evenodd" fill="url(#radial-gradient-14)" style="mix-blend-mode: lighten;isolation: isolate"/>
                  <path id="Path_102" data-name="Path 102" d="M302.29,166.53l6.808,5.7,6.53-5.419-6.016,5.85,6.336,6.127L309.14,173.1l-6.53,5.4,6.016-5.85Z" transform="translate(-215.227 3.552)" fill-rule="evenodd" fill="url(#radial-gradient-15)" style="mix-blend-mode: lighten;isolation: isolate"/>
                  <path id="Path_103" data-name="Path 103" d="M312.97,185.18l6.808,5.683,6.544-5.4-6.03,5.85,6.336,6.127-6.794-5.683-6.544,5.4,6.016-5.85Z" transform="translate(-211.068 10.815)" fill-rule="evenodd" fill="url(#radial-gradient-16)" style="mix-blend-mode: lighten;isolation: isolate"/>
                  <path id="Path_104" data-name="Path 104" d="M329,174.66l6.794,5.683,6.544-5.4-6.016,5.85,6.336,6.127-6.808-5.683-6.544,5.4,6.016-5.85Z" transform="translate(-204.825 6.718)" fill-rule="evenodd" fill="url(#radial-gradient-17)" style="mix-blend-mode: lighten;isolation: isolate"/>
                  <path id="Path_105" data-name="Path 105" d="M253.74,201.44l6.794,5.683,6.544-5.4-6.016,5.85,6.322,6.127-6.794-5.683-6.544,5.4,6.016-5.85Z" transform="translate(-234.135 17.147)" fill-rule="evenodd" fill="url(#radial-gradient-18)" style="mix-blend-mode: lighten;isolation: isolate"/>
                  <path id="Path_106" data-name="Path 106" d="M295.49,221.52l6.808,5.7,6.544-5.419-6.03,5.85,6.336,6.127-6.794-5.683-6.544,5.4,6.016-5.85Z" transform="translate(-217.876 24.967)" fill-rule="evenodd" fill="url(#radial-gradient-19)" style="mix-blend-mode: lighten;isolation: isolate"/>
                  <path id="Path_107" data-name="Path 107" d="M320.26,213.87l6.794,5.683,6.544-5.4L327.582,220l6.336,6.127-6.808-5.683-6.544,5.4,6.016-5.85Z" transform="translate(-208.229 21.988)" fill-rule="evenodd" fill="url(#radial-gradient-20)" style="mix-blend-mode: lighten;isolation: isolate"/>
                  <path id="Path_108" data-name="Path 108" d="M269.76,198.09l6.794,5.7,6.544-5.419-6.016,5.85,6.336,6.127-6.808-5.683-6.544,5.4,6.03-5.85Z" transform="translate(-227.896 15.843)" fill-rule="evenodd" fill="url(#radial-gradient-21)" style="mix-blend-mode: lighten;isolation: isolate"/>
                  <path id="Path_109" data-name="Path 109" d="M271.7,244.47l6.808,5.7,6.544-5.4-6.03,5.836,6.336,6.127-6.808-5.683-6.53,5.4,6.016-5.836Z" transform="translate(-227.141 33.905)" fill-rule="evenodd" fill="url(#radial-gradient-22)" style="mix-blend-mode: lighten;isolation: isolate"/>
                  <path id="Path_110" data-name="Path 110" d="M320.74,239.69l6.808,5.7,6.544-5.419-6.03,5.85,6.336,6.127-6.808-5.683-6.53,5.4,6.016-5.85Z" transform="translate(-208.042 32.044)" fill-rule="evenodd" fill="url(#radial-gradient-23)" style="mix-blend-mode: lighten;isolation: isolate"/>
                  <path id="Path_111" data-name="Path 111" d="M288.47,260.26l6.808,5.683,6.53-5.4-6.016,5.85,6.336,6.127-6.808-5.683-6.544,5.4,6.03-5.85Z" transform="translate(-220.61 40.054)" fill-rule="evenodd" fill="url(#radial-gradient-24)" style="mix-blend-mode: lighten;isolation: isolate"/>
                  <path id="Path_112" data-name="Path 112" d="M279.67,104.9l6.794,5.683,6.544-5.4-6.016,5.85,6.336,6.127-6.808-5.683-6.544,5.4,6.03-5.85Z" transform="translate(-224.037 -20.45)" fill-rule="evenodd" fill="url(#radial-gradient-25)" style="mix-blend-mode: lighten;isolation: isolate"/>
                </g>
                <g id="Group_11" data-name="Group 11" transform="translate(16.701 54.328)">
                  <ellipse id="Ellipse_1" data-name="Ellipse 1" cx="3.029" cy="2.987" rx="3.029" ry="2.987" transform="translate(94.204)" fill="url(#linear-gradient-4)"/>
                  <ellipse id="Ellipse_2" data-name="Ellipse 2" cx="3.029" cy="2.987" rx="3.029" ry="2.987" transform="translate(119.173 25.899)" fill="url(#linear-gradient-5)"/>
                  <ellipse id="Ellipse_3" data-name="Ellipse 3" cx="3.029" cy="2.987" rx="3.029" ry="2.987" transform="translate(94.204 56.467)" fill="url(#linear-gradient-6)"/>
                  <ellipse id="Ellipse_4" data-name="Ellipse 4" cx="3.029" cy="2.987" rx="3.029" ry="2.987" transform="translate(45.921 96.358)" fill="url(#linear-gradient-7)"/>
                  <ellipse id="Ellipse_5" data-name="Ellipse 5" cx="3.029" cy="2.987" rx="3.029" ry="2.987" transform="translate(105.667 92.342)" fill="url(#linear-gradient-8)"/>
                  <ellipse id="Ellipse_6" data-name="Ellipse 6" cx="3.029" cy="2.987" rx="3.029" ry="2.987" transform="translate(163.69 140.848)" fill="url(#linear-gradient-6)"/>
                  <path id="Path_113" data-name="Path 113" d="M303.7,201.815a2.988,2.988,0,1,0-3.029-2.987A3.019,3.019,0,0,0,303.7,201.815Z" transform="translate(-208.494 -29.746)" fill-rule="evenodd" fill="url(#linear-gradient-6)"/>
                  <path id="Path_114" data-name="Path 114" d="M335.5,214.875a2.988,2.988,0,1,0-3.029-2.987A3.019,3.019,0,0,0,335.5,214.875Z" transform="translate(-196.11 -24.66)" fill-rule="evenodd" fill="url(#linear-gradient-11)"/>
                  <ellipse id="Ellipse_7" data-name="Ellipse 7" cx="3.029" cy="2.987" rx="3.029" ry="2.987" transform="translate(48.325 208.611)" fill="url(#linear-gradient-6)"/>
                  <ellipse id="Ellipse_8" data-name="Ellipse 8" cx="3.029" cy="2.987" rx="3.029" ry="2.987" transform="translate(16.618 145.503)" fill="url(#linear-gradient-4)"/>
                  <path id="Path_115" data-name="Path 115" d="M237.359,244.725a2.988,2.988,0,1,0-3.029-2.987A3.019,3.019,0,0,0,237.359,244.725Z" transform="translate(-234.33 -13.035)" fill-rule="evenodd" fill="url(#linear-gradient-6)"/>
                  <path id="Path_116" data-name="Path 116" d="M261.159,269.585a2.988,2.988,0,1,0-3.029-2.987A3.019,3.019,0,0,0,261.159,269.585Z" transform="translate(-225.061 -3.353)" fill-rule="evenodd" fill="url(#linear-gradient-4)"/>
                  <path id="Path_117" data-name="Path 117" d="M364.1,255.235a2.988,2.988,0,1,0-3.029-2.987A3.019,3.019,0,0,0,364.1,255.235Z" transform="translate(-184.972 -8.942)" fill-rule="evenodd" fill="url(#linear-gradient-5)"/>
                  <path id="Path_118" data-name="Path 118" d="M372.839,284.4a2.988,2.988,0,1,0-3.029-2.987A3.019,3.019,0,0,0,372.839,284.4Z" transform="translate(-181.568 2.418)" fill-rule="evenodd" fill="url(#linear-gradient-7)"/>
                  <path id="Path_119" data-name="Path 119" d="M271.359,244.235a2.988,2.988,0,1,0-3.029-2.987A3.019,3.019,0,0,0,271.359,244.235Z" transform="translate(-221.089 -13.226)" fill-rule="evenodd" fill="url(#linear-gradient-5)"/>
                  <ellipse id="Ellipse_9" data-name="Ellipse 9" cx="3.029" cy="2.987" rx="3.029" ry="2.987" transform="translate(81.046 125.231)" fill="url(#linear-gradient-6)"/>
                  <path id="Path_120" data-name="Path 120" d="M346.679,129.375a2.988,2.988,0,1,0-3.029-2.987A3.019,3.019,0,0,0,346.679,129.375Z" transform="translate(-191.756 -57.957)" fill-rule="evenodd" fill="url(#linear-gradient-11)"/>
                  <ellipse id="Ellipse_10" data-name="Ellipse 10" cx="3.029" cy="2.987" rx="3.029" ry="2.987" transform="translate(45.296 48.158)" fill="url(#linear-gradient-5)"/>
                </g>
                <path id="Path_121" data-name="Path 121" d="M295.878,81.268a1.084,1.084,0,1,0-1.1-1.084A1.1,1.1,0,0,0,295.878,81.268Z" transform="translate(-194.087 -20.882)" fill-rule="evenodd" fill="url(#linear-gradient-22)"/>
                <path id="Path_122" data-name="Path 122" d="M314.208,57.778a1.084,1.084,0,1,0-1.1-1.084A1.1,1.1,0,0,0,314.208,57.778Z" transform="translate(-186.949 -30.03)" fill-rule="evenodd" fill="url(#linear-gradient-22)"/>
                <path id="Path_123" data-name="Path 123" d="M328.778,84.548a1.084,1.084,0,1,0-1.1-1.084A1.1,1.1,0,0,0,328.778,84.548Z" transform="translate(-181.274 -19.604)" fill-rule="evenodd" fill="url(#linear-gradient-24)"/>
                <path id="Path_124" data-name="Path 124" d="M270.508,102.248a1.084,1.084,0,1,0-1.1-1.084A1.1,1.1,0,0,0,270.508,102.248Z" transform="translate(-203.967 -12.711)" fill-rule="evenodd" fill="url(#linear-gradient-22)"/>
                <path id="Path_125" data-name="Path 125" d="M288.478,121.368a1.084,1.084,0,1,0-1.1-1.084A1.1,1.1,0,0,0,288.478,121.368Z" transform="translate(-196.969 -5.265)" fill-rule="evenodd" fill="url(#linear-gradient-24)"/>
                <path id="Path_126" data-name="Path 126" d="M319.548,122.808a1.084,1.084,0,1,0-1.1-1.084A1.1,1.1,0,0,0,319.548,122.808Z" transform="translate(-184.869 -4.704)" fill-rule="evenodd" fill="url(#linear-gradient-27)"/>
                <path id="Path_127" data-name="Path 127" d="M301.588,149.108a1.084,1.084,0,1,0-1.1-1.084A1.1,1.1,0,0,0,301.588,149.108Z" transform="translate(-191.863 5.538)" fill-rule="evenodd" fill="url(#linear-gradient-27)"/>
                <path id="Path_128" data-name="Path 128" d="M276.338,135.718a1.084,1.084,0,1,0-1.1-1.084A1.1,1.1,0,0,0,276.338,135.718Z" transform="translate(-201.697 0.324)" fill-rule="evenodd" fill="url(#linear-gradient-27)"/>
                <path id="Path_129" data-name="Path 129" d="M274.718,171.308a1.084,1.084,0,1,0-1.1-1.084A1.1,1.1,0,0,0,274.718,171.308Z" transform="translate(-202.328 14.184)" fill-rule="evenodd" fill="url(#linear-gradient-24)"/>
                <path id="Path_130" data-name="Path 130" d="M247.688,158.668a1.084,1.084,0,1,0-1.1-1.084A1.1,1.1,0,0,0,247.688,158.668Z" transform="translate(-212.854 9.261)" fill-rule="evenodd" fill="url(#linear-gradient-24)"/>
                <path id="Path_131" data-name="Path 131" d="M316.638,159.148a1.084,1.084,0,1,0-1.1-1.084A1.1,1.1,0,0,0,316.638,159.148Z" transform="translate(-186.002 9.448)" fill-rule="evenodd" fill="url(#linear-gradient-27)"/>
                <path id="Path_132" data-name="Path 132" d="M329.748,165.368a1.084,1.084,0,1,0-1.1-1.084A1.1,1.1,0,0,0,329.748,165.368Z" transform="translate(-180.897 11.871)" fill-rule="evenodd" fill="url(#linear-gradient-22)"/>
                <path id="Path_133" data-name="Path 133" d="M350.138,162.018a1.084,1.084,0,1,0-1.1-1.084A1.1,1.1,0,0,0,350.138,162.018Z" transform="translate(-172.956 10.566)" fill-rule="evenodd" fill="url(#linear-gradient-27)"/>
                <path id="Path_134" data-name="Path 134" d="M337.108,133.768a1.084,1.084,0,1,0-1.1-1.084A1.1,1.1,0,0,0,337.108,133.768Z" transform="translate(-178.03 -0.436)" fill-rule="evenodd" fill="url(#linear-gradient-24)"/>
                <ellipse id="Ellipse_11" data-name="Ellipse 11" cx="1.098" cy="1.084" rx="1.098" ry="1.084" transform="translate(169.304 190.507)" fill="url(#linear-gradient-36)"/>
                <path id="Path_135" data-name="Path 135" d="M296.728,193.1a1.084,1.084,0,1,0-1.1-1.084A1.1,1.1,0,0,0,296.728,193.1Z" transform="translate(-193.756 22.67)" fill-rule="evenodd" fill="url(#linear-gradient-27)"/>
                <path id="Path_136" data-name="Path 136" d="M260.8,195.488a1.084,1.084,0,1,0-1.1-1.084A1.1,1.1,0,0,0,260.8,195.488Z" transform="translate(-207.749 23.601)" fill-rule="evenodd" fill="url(#linear-gradient-24)"/>
                <path id="Path_137" data-name="Path 137" d="M301.588,217.488a1.084,1.084,0,1,0-1.1-1.084A1.1,1.1,0,0,0,301.588,217.488Z" transform="translate(-191.863 32.168)" fill-rule="evenodd" fill="url(#linear-gradient-22)"/>
                <path id="Path_138" data-name="Path 138" d="M333.148,205.048a1.084,1.084,0,1,0-1.1-1.084A1.1,1.1,0,0,0,333.148,205.048Z" transform="translate(-179.572 27.324)" fill-rule="evenodd" fill="url(#linear-gradient-24)"/>
                <path id="Path_139" data-name="Path 139" d="M359.368,209.358a1.084,1.084,0,1,0-1.1-1.084A1.1,1.1,0,0,0,359.368,209.358Z" transform="translate(-169.361 29.002)" fill-rule="evenodd" fill="url(#linear-gradient-27)"/>
                <path id="Path_140" data-name="Path 140" d="M332.178,190.708a1.084,1.084,0,1,0-1.1-1.084A1.1,1.1,0,0,0,332.178,190.708Z" transform="translate(-179.95 21.739)" fill-rule="evenodd" fill="url(#linear-gradient-27)"/>
                <path id="Path_141" data-name="Path 141" d="M252.548,229.438a1.084,1.084,0,1,0-1.1-1.084A1.1,1.1,0,0,0,252.548,229.438Z" transform="translate(-210.962 36.822)" fill-rule="evenodd" fill="url(#linear-gradient-24)"/>
                <path id="Path_142" data-name="Path 142" d="M289.448,229.438a1.084,1.084,0,1,0-1.1-1.084A1.1,1.1,0,0,0,289.448,229.438Z" transform="translate(-196.591 36.822)" fill-rule="evenodd" fill="url(#linear-gradient-24)"/>
                <path id="Path_143" data-name="Path 143" d="M300.608,238.528a1.084,1.084,0,1,0-1.1-1.084A1.1,1.1,0,0,0,300.608,238.528Z" transform="translate(-192.245 40.362)" fill-rule="evenodd" fill="url(#linear-gradient-45)"/>
                <path id="Path_144" data-name="Path 144" d="M254,241.4a1.084,1.084,0,1,0-1.1-1.084A1.1,1.1,0,0,0,254,241.4Z" transform="translate(-210.397 41.48)" fill-rule="evenodd" fill="url(#linear-gradient-22)"/>
                <path id="Path_145" data-name="Path 145" d="M281.678,243.788a1.084,1.084,0,1,0-1.1-1.084A1.1,1.1,0,0,0,281.678,243.788Z" transform="translate(-199.617 42.411)" fill-rule="evenodd" fill="url(#linear-gradient-22)"/>
                <path id="Path_146" data-name="Path 146" d="M223.408,248.568a1.084,1.084,0,1,0-1.1-1.084A1.1,1.1,0,0,0,223.408,248.568Z" transform="translate(-222.31 44.272)" fill-rule="evenodd" fill="url(#linear-gradient-22)"/>
                <path id="Path_147" data-name="Path 147" d="M321.488,229.918a1.084,1.084,0,1,0-1.1-1.084A1.1,1.1,0,0,0,321.488,229.918Z" transform="translate(-184.113 37.009)" fill-rule="evenodd" fill="url(#linear-gradient-49)"/>
                <path id="Path_148" data-name="Path 148" d="M344.068,251.438a1.084,1.084,0,1,0-1.1-1.084A1.1,1.1,0,0,0,344.068,251.438Z" transform="translate(-175.32 45.39)" fill-rule="evenodd" fill="url(#linear-gradient-50)"/>
                <path id="Path_149" data-name="Path 149" d="M376.6,247.128a1.084,1.084,0,1,0-1.1-1.084A1.1,1.1,0,0,0,376.6,247.128Z" transform="translate(-162.651 43.711)" fill-rule="evenodd" fill="url(#linear-gradient-51)"/>
                <path id="Path_150" data-name="Path 150" d="M305.468,255.5a1.084,1.084,0,1,0-1.1-1.084A1.1,1.1,0,0,0,305.468,255.5Z" transform="translate(-190.352 46.971)" fill-rule="evenodd" fill="url(#linear-gradient-49)"/>
                <path id="Path_151" data-name="Path 151" d="M273.908,268.168a1.084,1.084,0,1,0-1.1-1.084A1.1,1.1,0,0,0,273.908,268.168Z" transform="translate(-202.643 51.905)" fill-rule="evenodd" fill="url(#linear-gradient-24)"/>
                <path id="Path_152" data-name="Path 152" d="M236.038,259.567a1.084,1.084,0,1,0-1.1-1.084A1.1,1.1,0,0,0,236.038,259.567Z" transform="translate(-217.391 48.556)" fill-rule="evenodd" fill="url(#linear-gradient-22)"/>
                <path id="Path_153" data-name="Path 153" d="M233.368,270.317a1.084,1.084,0,1,0-1.1-1.084A1.1,1.1,0,0,0,233.368,270.317Z" transform="translate(-218.431 52.743)" fill-rule="evenodd" fill="url(#linear-gradient-24)"/>
                <path id="Path_154" data-name="Path 154" d="M366.168,287.538a1.084,1.084,0,1,0-1.1-1.084A1.1,1.1,0,0,0,366.168,287.538Z" transform="translate(-166.713 59.449)" fill-rule="evenodd" fill="url(#linear-gradient-22)"/>
                <path id="Path_155" data-name="Path 155" d="M321.978,287.538a1.084,1.084,0,1,0-1.1-1.084A1.1,1.1,0,0,0,321.978,287.538Z" transform="translate(-183.923 59.449)" fill-rule="evenodd" fill="url(#linear-gradient-22)"/>
                <path id="Path_156" data-name="Path 156" d="M380.728,264.587a1.084,1.084,0,1,0-1.1-1.084A1.1,1.1,0,0,0,380.728,264.587Z" transform="translate(-161.043 50.511)" fill-rule="evenodd" fill="url(#linear-gradient-58)"/>
                <path id="Path_157" data-name="Path 157" d="M346.5,269.367a1.084,1.084,0,1,0-1.1-1.084A1.1,1.1,0,0,0,346.5,269.367Z" transform="translate(-174.373 52.373)" fill-rule="evenodd" fill="url(#linear-gradient-59)"/>
              </g>
              <path id="Path_179" data-name="Path 179" d="M324.457,40.989l-13.311-9.671-13.311,9.671,5.085-15.659L289.61,15.659h16.465L311.16,0l5.085,15.659h16.465L319.4,25.33l5.085,15.659ZM311.146,29.276l10.171,7.392-3.89-11.949L327.6,17.326H315.023l-3.89-11.949-3.89,11.949H294.668l10.171,7.392-3.89,11.949,10.171-7.392Z" transform="translate(864.148 352.708)" fill="url(#linear-gradient-60)"/>
            </g>
          </g>
        </g>
      </g>
    </g>
  </g>
</svg>
